<svg width="2200" height="1600" xmlns="http://www.w3.org/2000/svg">
  <defs>
    <style>
      .entity-box { fill: #ffffff; stroke: #2c3e50; stroke-width: 2; rx: 6; }
      .entity-title { font-family: Arial, sans-serif; font-size: 14px; font-weight: bold; fill: #2c3e50; }
      .field-text { font-family: 'Courier New', monospace; font-size: 10px; fill: #34495e; }
      .pk { fill: #e74c3c; font-weight: bold; }
      .fk { fill: #3498db; }
      .relation-line { stroke: #95a5a6; stroke-width: 1.5; fill: none; marker-end: url(#arrow); }
      .section-bg { fill: #ecf0f1; stroke: none; }
    </style>
    <marker id="arrow" markerWidth="8" markerHeight="8" refX="7" refY="3" orient="auto">
      <polygon points="0 0, 8 3, 0 6" fill="#95a5a6" />
    </marker>
  </defs>

  <!-- 标题 -->
  <text x="1100" y="35" style="font-size: 24px; font-weight: bold; fill: #2c3e50; text-anchor: middle;">短剧API系统 - 数据库实体关系图</text>
  <text x="1100" y="58" style="font-size: 12px; fill: #7f8c8d; text-anchor: middle;">Database Entity Relationship Diagram (Updated 2026-06-23)</text>
  <!-- ========== 核心实体 Row 1 ========== -->
  
  <!-- User -->
  <rect x="50" y="90" width="260" height="300" class="entity-box"/>
  <rect x="50" y="90" width="260" height="28" class="section-bg"/>
  <text x="180" y="108" class="entity-title">👤 users</text>
  <text x="60" y="130" class="field-text pk">▸ id: BIGINT PK</text>
  <text x="60" y="145" class="field-text">  short_id: VARCHAR(11)</text>
  <text x="60" y="160" class="field-text">  telegram_id: BIGINT</text>
  <text x="60" y="175" class="field-text">  username: VARCHAR(255)</text>
  <text x="60" y="190" class="field-text">  nickname: VARCHAR(100)</text>
  <text x="60" y="205" class="field-text">  first_name: VARCHAR(255)</text>
  <text x="60" y="220" class="field-text">  last_name: VARCHAR(255)</text>
  <text x="60" y="235" class="field-text">  email: VARCHAR(255)</text>
  <text x="60" y="250" class="field-text">  password: VARCHAR(255)</text>
  <text x="60" y="265" class="field-text">  photo_url: TEXT</text>
  <text x="60" y="280" class="field-text">  is_active: BOOLEAN</text>
  <text x="60" y="295" class="field-text">  isGuest: BOOLEAN</text>
  <text x="60" y="310" class="field-text">  guestToken: VARCHAR(100)</text>
  <text x="60" y="325" class="field-text">  created_at: TIMESTAMP</text>
  <text x="60" y="340" class="field-text">  updated_at: TIMESTAMP</text>
  <text x="60" y="355" class="field-text">  last_login_at: TIMESTAMP</text>

  <!-- Category -->
  <rect x="350" y="90" width="260" height="220" class="entity-box"/>
  <rect x="350" y="90" width="260" height="28" class="section-bg"/>
  <text x="480" y="108" class="entity-title">📁 categories</text>
  <text x="360" y="130" class="field-text pk">▸ id: INT PK AUTO_INCREMENT</text>
  <text x="360" y="145" class="field-text">  category_id: VARCHAR(50)</text>
  <text x="360" y="160" class="field-text">  name: VARCHAR(50)</text>
  <text x="360" y="175" class="field-text">  type: INT</text>
  <text x="360" y="190" class="field-text">  index: INT</text>
  <text x="360" y="205" class="field-text">  route_name: VARCHAR(50)</text>
  <text x="360" y="220" class="field-text">  style_type: INT</text>
  <text x="360" y="235" class="field-text">  is_enabled: BOOLEAN</text>
  <text x="360" y="250" class="field-text">  created_at: TIMESTAMP</text>
  <text x="360" y="265" class="field-text">  updated_at: TIMESTAMP</text>

  <!-- Series -->
  <rect x="650" y="90" width="280" height="320" class="entity-box"/>
  <rect x="650" y="90" width="280" height="28" class="section-bg"/>
  <text x="790" y="108" class="entity-title">🎬 series</text>
  <text x="660" y="130" class="field-text pk">▸ id: INT PK AUTO_INCREMENT</text>
  <text x="660" y="145" class="field-text">  short_id: VARCHAR(11)</text>
  <text x="660" y="160" class="field-text">  title: VARCHAR(255)</text>
  <text x="660" y="175" class="field-text">  description: TEXT</text>
  <text x="660" y="190" class="field-text">  cover_url: VARCHAR(500)</text>
  <text x="660" y="205" class="field-text fk">  category_id: INT</text>
  <text x="660" y="220" class="field-text">  total_episodes: INT</text>
  <text x="660" y="235" class="field-text">  score: FLOAT</text>
  <text x="660" y="250" class="field-text">  play_count: INT</text>
  <text x="660" y="265" class="field-text">  starring: TEXT</text>
  <text x="660" y="280" class="field-text">  actor: TEXT</text>
  <text x="660" y="295" class="field-text">  director: VARCHAR(255)</text>
  <text x="660" y="310" class="field-text">  release_date: DATE</text>
  <text x="660" y="325" class="field-text">  is_active: BOOLEAN</text>
  <text x="660" y="340" class="field-text">  created_at: TIMESTAMP</text>
  <text x="660" y="355" class="field-text">  updated_at: TIMESTAMP</text>
  <text x="660" y="370" class="field-text">  deleted_at: TIMESTAMP</text>

  <!-- Episode -->
  <rect x="970" y="90" width="280" height="320" class="entity-box"/>
  <rect x="970" y="90" width="280" height="28" class="section-bg"/>
  <text x="1110" y="108" class="entity-title">📺 episodes</text>
  <text x="980" y="130" class="field-text pk">▸ id: INT PK AUTO_INCREMENT</text>
  <text x="980" y="145" class="field-text">  short_id: VARCHAR(11)</text>
  <text x="980" y="160" class="field-text">  access_key: VARCHAR(64)</text>
  <text x="980" y="175" class="field-text fk">  series_id: INT</text>
  <text x="980" y="190" class="field-text">  episode_number: INT</text>
  <text x="980" y="205" class="field-text">  title: VARCHAR(255)</text>
  <text x="980" y="220" class="field-text">  description: TEXT</text>
  <text x="980" y="235" class="field-text">  cover_url: VARCHAR(500)</text>
  <text x="980" y="250" class="field-text">  duration: INT</text>
  <text x="980" y="265" class="field-text">  status: VARCHAR(20)</text>
  <text x="980" y="280" class="field-text">  play_count: INT</text>
  <text x="980" y="295" class="field-text">  like_count: INT</text>
  <text x="980" y="310" class="field-text">  dislike_count: INT</text>
  <text x="980" y="325" class="field-text">  created_at: TIMESTAMP</text>
  <text x="980" y="340" class="field-text">  updated_at: TIMESTAMP</text>
  <text x="980" y="355" class="field-text">  deleted_at: TIMESTAMP</text>

  <!-- ========== 交互实体 Row 2 ========== -->
  
  <!-- Comment -->
  <rect x="50" y="450" width="280" height="280" class="entity-box"/>
  <rect x="50" y="450" width="280" height="28" class="section-bg"/>
  <text x="190" y="468" class="entity-title">💬 comments</text>
  <text x="60" y="490" class="field-text pk">▸ id: INT PK AUTO_INCREMENT</text>
  <text x="60" y="505" class="field-text fk">  user_id: BIGINT</text>
  <text x="60" y="520" class="field-text fk">  episode_id: INT</text>
  <text x="60" y="535" class="field-text">  content: TEXT</text>
  <text x="60" y="550" class="field-text">  appear_second: INT</text>
  <text x="60" y="565" class="field-text">  parent_id: INT</text>
  <text x="60" y="580" class="field-text">  reply_to_user_id: BIGINT</text>
  <text x="60" y="595" class="field-text">  floor_number: INT</text>
  <text x="60" y="610" class="field-text">  like_count: INT</text>
  <text x="60" y="625" class="field-text">  reply_count: INT</text>
  <text x="60" y="640" class="field-text">  is_deleted: BOOLEAN</text>
  <text x="60" y="655" class="field-text">  created_at: TIMESTAMP</text>
  <text x="60" y="670" class="field-text">  updated_at: TIMESTAMP</text>
  <text x="60" y="685" class="field-text">  deleted_at: TIMESTAMP</text>

  <!-- WatchProgress -->
  <rect x="370" y="450" width="280" height="180" class="entity-box"/>
  <rect x="370" y="450" width="280" height="28" class="section-bg"/>
  <text x="510" y="468" class="entity-title">⏯️ watch_progress</text>
  <text x="380" y="490" class="field-text pk">▸ user_id: BIGINT PK</text>
  <text x="380" y="505" class="field-text pk">▸ episode_id: INT PK</text>
  <text x="380" y="520" class="field-text">  stop_at_second: INT</text>
  <text x="380" y="535" class="field-text">  updated_at: TIMESTAMP</text>
  <text x="380" y="565" class="field-text">  PRIMARY KEY:</text>
  <text x="380" y="580" class="field-text">    (user_id, episode_id)</text>

  <!-- EpisodeReactions -->
  <rect x="690" y="450" width="280" height="200" class="entity-box"/>
  <rect x="690" y="450" width="280" height="28" class="section-bg"/>
  <text x="830" y="468" class="entity-title">⚡ episode_reactions</text>
  <text x="700" y="490" class="field-text pk">▸ id: INT PK AUTO_INCREMENT</text>
  <text x="700" y="505" class="field-text fk">  user_id: BIGINT</text>
  <text x="700" y="520" class="field-text fk">  episode_id: INT</text>
  <text x="700" y="535" class="field-text">  reaction_type: VARCHAR(20)</text>
  <text x="700" y="550" class="field-text">    'like' | 'dislike'</text>
  <text x="700" y="565" class="field-text">  created_at: TIMESTAMP</text>
  <text x="700" y="580" class="field-text">  updated_at: TIMESTAMP</text>
  <text x="700" y="610" class="field-text">  UNIQUE (user_id, episode_id)</text>

  <!-- Favorites -->
  <rect x="1010" y="450" width="280" height="200" class="entity-box"/>
  <rect x="1010" y="450" width="280" height="28" class="section-bg"/>
  <text x="1150" y="468" class="entity-title">⭐ favorites</text>
  <text x="1020" y="490" class="field-text pk">▸ id: INT PK AUTO_INCREMENT</text>
  <text x="1020" y="505" class="field-text fk">  user_id: BIGINT</text>
  <text x="1020" y="520" class="field-text fk">  series_id: INT</text>
  <text x="1020" y="535" class="field-text">  episode_id: INT</text>
  <text x="1020" y="550" class="field-text">  favorite_type: VARCHAR(20)</text>
  <text x="1020" y="565" class="field-text">  created_at: TIMESTAMP</text>
  <text x="1020" y="580" class="field-text">  updated_at: TIMESTAMP</text>
  <text x="1020" y="610" class="field-text">  UNIQUE (user_id, series_id)</text>

  <!-- ========== 其他实体 Row 3 ========== -->
  
  <!-- UserOnlineDaily -->
  <rect x="50" y="770" width="280" height="180" class="entity-box"/>
  <rect x="50" y="770" width="280" height="28" class="section-bg"/>
  <text x="190" y="788" class="entity-title">📊 user_online_daily</text>
  <text x="60" y="810" class="field-text pk">▸ user_id: BIGINT PK</text>
  <text x="60" y="825" class="field-text pk">▸ date: DATE PK</text>
  <text x="60" y="840" class="field-text">  online_seconds: INT</text>
  <text x="60" y="855" class="field-text">  updated_at: TIMESTAMP</text>
  <text x="60" y="885" class="field-text">  PRIMARY KEY:</text>
  <text x="60" y="900" class="field-text">    (user_id, date)</text>

  <!-- RefreshToken -->
  <rect x="370" y="770" width="280" height="220" class="entity-box"/>
  <rect x="370" y="770" width="280" height="28" class="section-bg"/>
  <text x="510" y="788" class="entity-title">🔑 refresh_tokens</text>
  <text x="380" y="810" class="field-text pk">▸ id: INT PK AUTO_INCREMENT</text>
  <text x="380" y="825" class="field-text fk">  user_id: BIGINT</text>
  <text x="380" y="840" class="field-text">  token: VARCHAR(255)</text>
  <text x="380" y="855" class="field-text">  expires_at: TIMESTAMP</text>
  <text x="380" y="870" class="field-text">  is_revoked: BOOLEAN</text>
  <text x="380" y="885" class="field-text">  device_info: VARCHAR(500)</text>
  <text x="380" y="900" class="field-text">  ip_address: VARCHAR(45)</text>
  <text x="380" y="915" class="field-text">  user_agent: VARCHAR(500)</text>
  <text x="380" y="930" class="field-text">  created_at: TIMESTAMP</text>
  <text x="380" y="945" class="field-text">  updated_at: TIMESTAMP</text>

  <!-- BrowseHistory -->
  <rect x="690" y="770" width="280" height="240" class="entity-box"/>
  <rect x="690" y="770" width="280" height="28" class="section-bg"/>
  <text x="830" y="788" class="entity-title">📖 browse_history</text>
  <text x="700" y="810" class="field-text pk">▸ id: INT PK AUTO_INCREMENT</text>
  <text x="700" y="825" class="field-text fk">  user_id: BIGINT</text>
  <text x="700" y="840" class="field-text fk">  series_id: INT</text>
  <text x="700" y="855" class="field-text">  browse_type: VARCHAR(50)</text>
  <text x="700" y="870" class="field-text">  last_episode_number: INT</text>
  <text x="700" y="885" class="field-text">  visit_count: INT</text>
  <text x="700" y="900" class="field-text">  user_agent: VARCHAR(500)</text>
  <text x="700" y="915" class="field-text">  ip_address: VARCHAR(45)</text>
  <text x="700" y="930" class="field-text">  created_at: TIMESTAMP</text>
  <text x="700" y="945" class="field-text">  updated_at: TIMESTAMP</text>
  <text x="700" y="975" class="field-text">  INDEX (user_id, series_id)</text>

  <!-- AdminUsers -->
  <rect x="1010" y="770" width="280" height="240" class="entity-box"/>
  <rect x="1010" y="770" width="280" height="28" class="section-bg"/>
  <text x="1150" y="788" class="entity-title">👨‍💼 admin_users</text>
  <text x="1020" y="810" class="field-text pk">▸ id: INT PK AUTO_INCREMENT</text>
  <text x="1020" y="825" class="field-text">  username: VARCHAR(50)</text>
  <text x="1020" y="840" class="field-text">  password: VARCHAR(255)</text>
  <text x="1020" y="855" class="field-text">  name: VARCHAR(100)</text>
  <text x="1020" y="870" class="field-text">  role: VARCHAR(20)</text>
  <text x="1020" y="885" class="field-text">    'super_admin' | 'admin'</text>
  <text x="1020" y="900" class="field-text">  email: VARCHAR(100)</text>
  <text x="1020" y="915" class="field-text">  is_active: BOOLEAN</text>
  <text x="1020" y="930" class="field-text">  last_login_at: TIMESTAMP</text>
  <text x="1020" y="945" class="field-text">  created_at: TIMESTAMP</text>
  <text x="1020" y="960" class="field-text">  updated_at: TIMESTAMP</text>
  <!-- ========== 关系线 ========== -->
  
  <!-- Category -> Series -->
  <path d="M 610 200 L 650 200" class="relation-line"/>
  <text x="630" y="195" style="font-size: 9px; fill: #7f8c8d;">1:N</text>

  <!-- Series -> Episode -->
  <path d="M 930 250 L 970 250" class="relation-line"/>
  <text x="950" y="245" style="font-size: 9px; fill: #7f8c8d;">1:N</text>

  <!-- User -> Comment -->
  <path d="M 180 390 L 180 450" class="relation-line"/>
  <text x="195" y="420" style="font-size: 9px; fill: #7f8c8d;">1:N</text>

  <!-- Episode -> Comment -->
  <path d="M 1110 410 L 1110 590 L 330 590" class="relation-line"/>
  <text x="720" y="585" style="font-size: 9px; fill: #7f8c8d;">1:N</text>

  <!-- User -> WatchProgress -->
  <path d="M 310 280 L 510 280 L 510 450" class="relation-line"/>
  <text x="410" y="275" style="font-size: 9px; fill: #7f8c8d;">1:N</text>

  <!-- Episode -> WatchProgress -->
  <path d="M 1110 410 L 1110 430 L 510 430 L 510 450" class="relation-line"/>
  <text x="810" y="425" style="font-size: 9px; fill: #7f8c8d;">1:N</text>

  <!-- User -> EpisodeReactions -->
  <path d="M 310 260 L 830 260 L 830 450" class="relation-line"/>
  <text x="570" y="255" style="font-size: 9px; fill: #7f8c8d;">1:N</text>

  <!-- Episode -> EpisodeReactions -->
  <path d="M 1110 410 L 1110 440 L 830 440 L 830 450" class="relation-line"/>
  <text x="970" y="435" style="font-size: 9px; fill: #7f8c8d;">1:N</text>

  <!-- User -> Favorites -->
  <path d="M 310 240 L 1150 240 L 1150 450" class="relation-line"/>
  <text x="730" y="235" style="font-size: 9px; fill: #7f8c8d;">1:N</text>

  <!-- Series -> Favorites -->
  <path d="M 930 290 L 1150 290 L 1150 450" class="relation-line"/>
  <text x="1040" y="285" style="font-size: 9px; fill: #7f8c8d;">1:N</text>

  <!-- User -> UserOnlineDaily -->
  <path d="M 180 390 L 180 770" class="relation-line"/>
  <text x="195" y="580" style="font-size: 9px; fill: #7f8c8d;">1:N</text>

  <!-- User -> RefreshToken -->
  <path d="M 180 390 L 180 750 L 510 750 L 510 770" class="relation-line"/>
  <text x="345" y="745" style="font-size: 9px; fill: #7f8c8d;">1:N</text>

  <!-- User -> BrowseHistory -->
  <path d="M 310 300 L 830 300 L 830 770" class="relation-line"/>
  <text x="570" y="295" style="font-size: 9px; fill: #7f8c8d;">1:N</text>

  <!-- Series -> BrowseHistory -->
  <path d="M 790 410 L 790 770" class="relation-line"/>
  <text x="805" y="590" style="font-size: 9px; fill: #7f8c8d;">1:N</text>
  <!-- ========== 图例 ========== -->
  <rect x="50" y="1100" width="1240" height="420" fill="#f8f9fa" stroke="#dee2e6" stroke-width="2" rx="8"/>
  
  <text x="670" y="1135" style="font-size: 20px; font-weight: bold; fill: #2c3e50; text-anchor: middle;">数据库设计说明 Database Design Notes</text>
  
  <!-- 左列 -->
  <text x="70" y="1170" style="font-size: 14px; font-weight: bold; fill: #2c3e50;">📋 核心实体 Core Entities:</text>
  <text x="70" y="1195" class="field-text">• users - 用户表（支持邮箱、Telegram、游客登录）</text>
  <text x="70" y="1212" class="field-text">• categories - 分类表</text>
  <text x="70" y="1229" class="field-text">• series - 剧集系列表</text>
  <text x="70" y="1246" class="field-text">• episodes - 单集剧集表</text>
  <text x="70" y="1263" class="field-text">• comments - 评论表（支持回复）</text>
  
  <text x="70" y="1298" style="font-size: 14px; font-weight: bold; fill: #2c3e50;">🔗 关系表 Relationship Tables:</text>
  <text x="70" y="1323" class="field-text">• watch_progress - 观看进度（联合主键）</text>
  <text x="70" y="1340" class="field-text">• episode_reactions - 剧集反应（点赞/点踩）</text>
  <text x="70" y="1357" class="field-text">• favorites - 收藏表</text>
  <text x="70" y="1374" class="field-text">• browse_history - 浏览历史</text>
  
  <text x="70" y="1409" style="font-size: 14px; font-weight: bold; fill: #2c3e50;">🔐 认证表 Authentication Tables:</text>
  <text x="70" y="1434" class="field-text">• refresh_tokens - 刷新令牌</text>
  <text x="70" y="1451" class="field-text">• admin_users - 管理员用户</text>
  
  <!-- 中列 -->
  <text x="450" y="1170" style="font-size: 14px; font-weight: bold; fill: #2c3e50;">🎨 字段类型 Field Types:</text>
  <text x="450" y="1195" class="field-text pk">▸ 红色字段 - 主键 (Primary Key)</text>
  <text x="450" y="1212" class="field-text fk">▸ 蓝色字段 - 外键 (Foreign Key)</text>
  <text x="450" y="1229" class="field-text">▸ 黑色字段 - 普通字段 (Regular Field)</text>
  
  <text x="450" y="1264" style="font-size: 14px; font-weight: bold; fill: #2c3e50;">📊 统计表 Statistics Tables:</text>
  <text x="450" y="1289" class="field-text">• user_online_daily - 用户每日在线时长</text>
  <text x="450" y="1306" class="field-text">  - 联合主键: (user_id, date)</text>
  <text x="450" y="1323" class="field-text">  - 存储每天的在线秒数</text>
  <text x="450" y="1340" class="field-text">  - Redis缓存后每5分钟批量写入</text>
  
  <text x="450" y="1375" style="font-size: 14px; font-weight: bold; fill: #2c3e50;">🔍 索引设计 Index Design:</text>
  <text x="450" y="1400" class="field-text">• 所有外键字段自动创建索引</text>
  <text x="450" y="1417" class="field-text">• 唯一约束防止重复数据</text>
  <text x="450" y="1434" class="field-text">• 联合索引优化多条件查询</text>
  <text x="450" y="1451" class="field-text">• 复合主键用于多对多关系</text>
  
  <!-- 右列 -->
  <text x="830" y="1170" style="font-size: 14px; font-weight: bold; fill: #2c3e50;">✨ 特性 Features:</text>
  <text x="830" y="1195" class="field-text">✓ UUID/ShortID 防枚举攻击</text>
  <text x="830" y="1212" class="field-text">✓ 软删除支持 (deleted_at)</text>
  <text x="830" y="1229" class="field-text">✓ 时间戳自动更新</text>
  <text x="830" y="1246" class="field-text">✓ 级联删除保护</text>
  <text x="830" y="1263" class="field-text">✓ 唯一约束防重复</text>
  <text x="830" y="1280" class="field-text">✓ 游客账号支持</text>
  
  <text x="830" y="1315" style="font-size: 14px; font-weight: bold; fill: #2c3e50;">🚀 性能优化 Performance:</text>
  <text x="830" y="1340" class="field-text">• Redis 缓存在线时长数据</text>
  <text x="830" y="1357" class="field-text">• HyperLogLog 统计 DAU（日活）</text>
  <text x="830" y="1374" class="field-text">• 联合索引优化查询</text>
  <text x="830" y="1391" class="field-text">• 批量写入减少数据库压力</text>
  
  <text x="830" y="1426" style="font-size: 14px; font-weight: bold; fill: #2c3e50;">🔄 关系说明 Relationships:</text>
  <text x="830" y="1451" class="field-text">• 1:N - 一对多关系</text>
  <text x="830" y="1468" class="field-text">• 所有箭头指向"多"的一方</text>
  <text x="830" y="1485" class="field-text">• 外键关联保证数据完整性</text>
  
  <!-- 底部信息 -->
  <text x="670" y="1510" style="font-size: 11px; fill: #95a5a6; text-anchor: middle;">
    Version 3.0 | Updated: 2026-06-23 | Total Tables: 11 | Features: 游客登录、心跳检测、观看进度、Redis缓存
  </text>


</svg>
